<svg width="72" height="30" viewBox="0 0 292 147" fill="none" xmlns="http://www.w3.org/2000/svg">
<path d="M23.998 60.166C23.998 52.39 24.16 45.802 24.484 40.402C24.916 35.002 25.672 30.574 26.752 27.118C27.94 23.662 29.56 21.178 31.612 19.666C33.772 18.046 36.58 17.236 40.036 17.236C43.492 17.236 46.246 18.046 48.298 19.666C50.458 21.178 52.078 23.662 53.158 27.118C54.346 30.574 55.102 35.002 55.426 40.402C55.858 45.802 56.074 52.39 56.074 60.166C56.074 67.942 55.858 74.584 55.426 80.092C55.102 85.492 54.346 89.92 53.158 93.376C52.078 96.724 50.458 99.208 48.298 100.828C46.246 102.34 43.492 103.096 40.036 103.096C36.58 103.096 33.772 102.34 31.612 100.828C29.56 99.208 27.94 96.724 26.752 93.376C25.672 89.92 24.916 85.492 24.484 80.092C24.16 74.584 23.998 67.942 23.998 60.166ZM69.196 131.77L82.966 119.296L70.492 107.146C74.272 101.638 76.702 94.888 77.782 86.896C78.862 78.904 79.402 69.994 79.402 60.166C79.402 51.418 78.97 43.372 78.106 36.028C77.35 28.576 75.568 22.204 72.76 16.912C70.06 11.62 66.118 7.51599 60.934 4.59999C55.75 1.57599 48.784 0.0639927 40.036 0.0639927C31.288 0.0639927 24.322 1.57599 19.138 4.59999C13.954 7.51599 9.958 11.62 7.15 16.912C4.45 22.204 2.668 28.576 1.804 36.028C1.048 43.372 0.67 51.418 0.67 60.166C0.67 69.022 1.048 77.122 1.804 84.466C2.668 91.81 4.45 98.128 7.15 103.42C9.958 108.712 13.954 112.762 19.138 115.57C24.322 118.378 31.288 119.782 40.036 119.782C45.976 119.782 51.106 119.188 55.426 118L69.196 131.77ZM111.1 2.33199V118H133.456V2.33199H111.1ZM167.838 1.03599V20.152H190.194V1.03599H167.838ZM167.838 30.844V118H190.194V30.844H167.838ZM223.766 30.844V146.026H246.122V109.9H246.446C248.822 113.356 251.468 115.894 254.384 117.514C257.408 119.026 261.026 119.782 265.238 119.782C274.418 119.782 281.168 116.272 285.488 109.252C289.808 102.232 291.968 90.622 291.968 74.422C291.968 58.222 289.808 46.558 285.488 39.43C281.168 32.194 274.418 28.576 265.238 28.576C260.702 28.576 256.868 29.494 253.736 31.33C250.712 33.058 247.958 35.974 245.474 40.078H245.15V30.844H223.766ZM246.122 74.422C246.122 64.918 246.824 57.79 248.228 53.038C249.74 48.178 252.98 45.748 257.948 45.748C262.808 45.748 265.94 48.178 267.344 53.038C268.856 57.79 269.612 64.918 269.612 74.422C269.612 83.926 268.856 91.108 267.344 95.968C265.94 100.72 262.808 103.096 257.948 103.096C252.98 103.096 249.74 100.72 248.228 95.968C246.824 91.108 246.122 83.926 246.122 74.422Z" fill="#EFEFEF"/>
</svg>
