<svg width="30" height="30" viewBox="0 0 136 136" fill="none" xmlns="http://www.w3.org/2000/svg">
<rect width="136" height="136" rx="27" fill="#00A7CC"/>
<path d="M45.4518 69.9543V53.2303C45.4518 45.3203 45.8662 40.3859 46.6948 38.4273C47.9755 35.3386 51.2902 31.3459 56.6388 26.4493C62.0628 21.4773 66.1308 18.9913 68.8428 18.9913C71.5548 18.9913 75.5852 21.4773 80.9338 26.4493C86.3578 31.3459 89.7102 35.3386 90.9908 38.4273C91.8195 40.3859 92.2338 45.3203 92.2338 53.2303V66.5643C92.2338 74.4743 91.8572 79.2956 91.1038 81.0283C90.4258 82.7609 88.6178 85.1339 85.6798 88.1473C82.8172 91.0853 79.8038 93.3076 76.6398 94.8143C80.0298 97.3003 82.1768 98.5433 83.0808 98.5433C84.8888 98.5433 86.7345 97.4886 88.6178 95.3793L99.1268 102.724C96.2642 105.738 93.2885 108.374 90.1998 110.634C87.1865 112.894 84.8135 114.024 83.0808 114.024C80.3688 114.024 76.3008 112.216 70.8768 108.6C65.4528 105.06 60.1042 100.615 54.8308 95.2663C56.6388 93.9856 58.8235 92.4789 61.3848 90.7463C63.9462 88.9383 65.7542 87.6576 66.8088 86.9043C67.9388 86.0756 69.1818 85.0963 70.5378 83.9663C72.7978 82.0829 74.5305 80.0866 75.7358 77.9773C76.3385 76.7719 76.6398 72.9676 76.6398 66.5643V53.2303C76.6398 47.0529 76.3385 43.2863 75.7358 41.9303C75.1332 40.4989 74.0785 39.0299 72.5718 37.5233C71.1405 35.9413 69.8975 35.1503 68.8428 35.1503C67.7882 35.1503 66.5075 35.9413 65.0008 37.5233C63.5695 39.0299 62.5525 40.4989 61.9498 41.9303C61.3472 43.2863 61.0458 47.0529 61.0458 53.2303V69.9543C61.0458 75.6043 61.2718 79.4839 61.7238 81.5933L49.9718 89.7293C48.4652 87.7706 47.3352 85.9626 46.5818 84.3053C45.8285 82.6479 45.4518 77.8643 45.4518 69.9543Z" fill="white"/>
</svg>
