<svg fill="#777" xmlns="http://www.w3.org/2000/svg" viewBox="0 0 50 50" width="50px" height="50px"><path fill="none" fill-rule="evenodd" stroke="#777" stroke-linecap="round" stroke-linejoin="round" stroke-miterlimit="10" stroke-width="2" d="M38,14C37.159,8.359,31.667,4,25,4S12.841,8.359,12,14H38z" clip-rule="evenodd"/><path fill="none" stroke="#777" stroke-linecap="round" stroke-linejoin="round" stroke-miterlimit="10" stroke-width="2" d="M30.719 5.156L33.523 1"/><path fill-rule="evenodd" d="M32,9.498C32,8.67,31.33,8,30.497,8C29.67,8,29,8.67,29,9.498C29,10.33,29.67,11,30.497,11C31.33,11,32,10.33,32,9.498z" clip-rule="evenodd"/><path fill="none" stroke="#777" stroke-linecap="round" stroke-linejoin="round" stroke-miterlimit="10" stroke-width="2" d="M19.281 5.156L16.477 1"/><path fill-rule="evenodd" d="M19.503,11C20.33,11,21,10.33,21,9.498C21,8.67,20.33,8,19.503,8C18.67,8,18,8.67,18,9.498C18,10.33,18.67,11,19.503,11z" clip-rule="evenodd"/><path fill="none" fill-rule="evenodd" stroke="#777" stroke-linecap="round" stroke-linejoin="round" stroke-miterlimit="10" stroke-width="2" d="M12 14v23c0 1.104.896 2 2 2 .241 0 21.759 0 22 0 1.104 0 2-.896 2-2V14M41 16c-1.657 0-3 1.343-3 3 0 .431 0 11.569 0 12 0 1.657 1.343 3 3 3s3-1.343 3-3c0-.431 0-11.569 0-12C44 17.343 42.657 16 41 16zM9 16c-1.657 0-3 1.343-3 3 0 .431 0 11.569 0 12 0 1.657 1.343 3 3 3s3-1.343 3-3c0-.431 0-11.569 0-12C12 17.343 10.657 16 9 16zM16 39c0 .549 0 6.451 0 7 0 1.657 1.343 3 3 3s3-1.343 3-3c0-.549 0-6.451 0-7M28 39c0 .549 0 6.451 0 7 0 1.657 1.343 3 3 3s3-1.343 3-3c0-.549 0-6.451 0-7" clip-rule="evenodd"/></svg>